<?xml version="1.0" encoding="UTF-8"?>
<svg
	width="1544"
	height="500"
	viewBox="0 0 1544 500"
	fill="none"
	xmlns="http://www.w3.org/2000/svg"
>
	<defs>
		<linearGradient id="bg" x1="0" y1="0" x2="1544" y2="500" gradientUnits="userSpaceOnUse">
			<stop offset="0" stop-color="#3858E9" />
			<stop offset="1" stop-color="#1D35B4" />
		</linearGradient>
	</defs>

	<rect width="1544" height="500" rx="32" fill="url(#bg)" />
	<rect x="92" y="90" width="320" height="320" rx="64" fill="rgba(255,255,255,0.08)" />

	<g transform="translate(124 122) scale(0.5)">
		<path d="M334 424C425 414 498 373 498 321C498 279 462 245 391 226" stroke="#FFFFFF" stroke-width="28" stroke-linecap="round" stroke-linejoin="round" />
		<path d="M111 235C65.6822 250.538 14 281.957 14 313.032C14 358.731 80.9915 397.118 169 409" stroke="#FFFFFF" stroke-width="28" stroke-linecap="round" stroke-linejoin="round" />
		<path d="M205 367L254 423L169 452Z" stroke="#FFFFFF" stroke-width="28" stroke-linecap="round" stroke-linejoin="round" />
		<path d="M256 52L386 127L256 202L126 127Z" stroke="#FFFFFF" stroke-width="28" stroke-linecap="round" stroke-linejoin="round" />
		<path d="M126 127V277L256 352L386 277V127" stroke="#FFFFFF" stroke-width="28" stroke-linecap="round" stroke-linejoin="round" />
		<path d="M256 202V352" stroke="#FFFFFF" stroke-width="28" stroke-linecap="round" stroke-linejoin="round" />
	</g>

	<text
		x="490"
		y="220"
		fill="#FFFFFF"
		font-family="-apple-system, BlinkMacSystemFont, 'Segoe UI', sans-serif"
		font-size="76"
		font-weight="700"
		letter-spacing="-1"
	>
		Minimal Model Viewer
	</text>

	<text
		x="490"
		y="292"
		fill="rgba(255,255,255,0.88)"
		font-family="-apple-system, BlinkMacSystemFont, 'Segoe UI', sans-serif"
		font-size="34"
		font-weight="500"
	>
		GLB and glTF models for Gutenberg
	</text>

	<rect x="490" y="334" width="192" height="6" rx="3" fill="rgba(255,255,255,0.72)" />
</svg>
